<mxfile host="app.diagrams.net" agent="Mozilla/5.0 (Windows NT 10.0; Win64; x64; rv:130.0) Gecko/20100101 Firefox/130.0" version="24.7.8">
  <diagram id="l8hXMBHkgcEJcSW0mbfh" name="Page-1">
    <mxGraphModel dx="1235" dy="624" grid="1" gridSize="10" guides="1" tooltips="1" connect="1" arrows="1" fold="1" page="1" pageScale="1" pageWidth="1169" pageHeight="827" math="0" shadow="0">
      <root>
        <mxCell id="0" />
        <mxCell id="1" parent="0" />
        <mxCell id="CJoD5Do5vxdJUcqAq3yu-29" value="&lt;div align=&quot;left&quot;&gt;&lt;b&gt;VULTR&lt;/b&gt;&lt;br&gt;&lt;/div&gt;" style="rounded=1;whiteSpace=wrap;html=1;labelPosition=center;verticalLabelPosition=top;align=center;verticalAlign=bottom;" vertex="1" parent="1">
          <mxGeometry x="120" y="120" width="650" height="410" as="geometry" />
        </mxCell>
        <mxCell id="CJoD5Do5vxdJUcqAq3yu-27" value="&lt;b&gt;&lt;font style=&quot;font-size: 15px;&quot;&gt;VPC&lt;/font&gt;&lt;/b&gt;" style="rounded=0;whiteSpace=wrap;html=1;align=center;labelPosition=center;verticalLabelPosition=bottom;verticalAlign=top;" vertex="1" parent="1">
          <mxGeometry x="140" y="160" width="610" height="330" as="geometry" />
        </mxCell>
        <mxCell id="CJoD5Do5vxdJUcqAq3yu-25" value="Alerts/Tickets" style="rounded=0;orthogonalLoop=1;jettySize=auto;html=1;dashed=1;startArrow=classic;startFill=1;labelBorderColor=none;" edge="1" parent="1" source="CJoD5Do5vxdJUcqAq3yu-8" target="CJoD5Do5vxdJUcqAq3yu-18">
          <mxGeometry relative="1" as="geometry" />
        </mxCell>
        <mxCell id="CJoD5Do5vxdJUcqAq3yu-8" value="Elastic &amp;amp; Kibana" style="image;aspect=fixed;perimeter=ellipsePerimeter;html=1;align=center;shadow=0;dashed=0;spacingTop=3;image=img/lib/active_directory/generic_server.svg;labelBorderColor=none;" vertex="1" parent="1">
          <mxGeometry x="430" y="180" width="28.000000000000004" height="50" as="geometry" />
        </mxCell>
        <mxCell id="CJoD5Do5vxdJUcqAq3yu-19" value="Managed" style="edgeStyle=orthogonalEdgeStyle;rounded=0;orthogonalLoop=1;jettySize=auto;html=1;labelBorderColor=none;" edge="1" parent="1" source="CJoD5Do5vxdJUcqAq3yu-9" target="CJoD5Do5vxdJUcqAq3yu-10">
          <mxGeometry relative="1" as="geometry" />
        </mxCell>
        <mxCell id="CJoD5Do5vxdJUcqAq3yu-9" value="Windows Server&lt;br&gt;RPD enabled" style="image;aspect=fixed;perimeter=ellipsePerimeter;html=1;align=center;shadow=0;dashed=0;spacingTop=3;image=img/lib/active_directory/generic_server.svg;labelBorderColor=none;" vertex="1" parent="1">
          <mxGeometry x="170" y="389" width="30" height="50" as="geometry" />
        </mxCell>
        <mxCell id="CJoD5Do5vxdJUcqAq3yu-22" value="Managed Agents" style="edgeStyle=orthogonalEdgeStyle;rounded=0;orthogonalLoop=1;jettySize=auto;html=1;verticalAlign=bottom;dashed=1;endArrow=classic;endFill=1;startArrow=classic;startFill=1;labelBorderColor=none;" edge="1" parent="1" source="CJoD5Do5vxdJUcqAq3yu-10" target="CJoD5Do5vxdJUcqAq3yu-8">
          <mxGeometry relative="1" as="geometry">
            <mxPoint x="453.76" y="389" as="sourcePoint" />
            <mxPoint x="453.76" y="310" as="targetPoint" />
          </mxGeometry>
        </mxCell>
        <mxCell id="CJoD5Do5vxdJUcqAq3yu-10" value="Fleet Server" style="image;aspect=fixed;perimeter=ellipsePerimeter;html=1;align=center;shadow=0;dashed=0;spacingTop=3;image=img/lib/active_directory/generic_server.svg;labelBorderColor=none;" vertex="1" parent="1">
          <mxGeometry x="430" y="390" width="30" height="50" as="geometry" />
        </mxCell>
        <mxCell id="CJoD5Do5vxdJUcqAq3yu-20" value="Managed" style="edgeStyle=orthogonalEdgeStyle;rounded=0;orthogonalLoop=1;jettySize=auto;html=1;labelBorderColor=none;" edge="1" parent="1" source="CJoD5Do5vxdJUcqAq3yu-11" target="CJoD5Do5vxdJUcqAq3yu-10">
          <mxGeometry relative="1" as="geometry" />
        </mxCell>
        <mxCell id="CJoD5Do5vxdJUcqAq3yu-23" value="Forward logs via Agent" style="rounded=0;orthogonalLoop=1;jettySize=auto;html=1;dashed=1;labelBorderColor=none;" edge="1" parent="1" source="CJoD5Do5vxdJUcqAq3yu-11" target="CJoD5Do5vxdJUcqAq3yu-8">
          <mxGeometry relative="1" as="geometry" />
        </mxCell>
        <mxCell id="CJoD5Do5vxdJUcqAq3yu-11" value="Ubuntu Server &lt;br&gt;SSH enabled" style="image;aspect=fixed;perimeter=ellipsePerimeter;html=1;align=center;shadow=0;dashed=0;spacingTop=3;image=img/lib/active_directory/generic_server.svg;labelBorderColor=none;" vertex="1" parent="1">
          <mxGeometry x="660" y="390" width="30" height="50" as="geometry" />
        </mxCell>
        <mxCell id="CJoD5Do5vxdJUcqAq3yu-32" style="rounded=0;orthogonalLoop=1;jettySize=auto;html=1;" edge="1" parent="1" source="CJoD5Do5vxdJUcqAq3yu-13" target="CJoD5Do5vxdJUcqAq3yu-14">
          <mxGeometry relative="1" as="geometry" />
        </mxCell>
        <mxCell id="CJoD5Do5vxdJUcqAq3yu-13" value="C2 Mythic Server" style="image;aspect=fixed;perimeter=ellipsePerimeter;html=1;align=center;shadow=0;dashed=0;spacingTop=3;image=img/lib/active_directory/generic_server.svg;" vertex="1" parent="1">
          <mxGeometry x="850" y="120" width="28.000000000000004" height="50" as="geometry" />
        </mxCell>
        <mxCell id="CJoD5Do5vxdJUcqAq3yu-14" value="Internet" style="ellipse;shape=cloud;whiteSpace=wrap;html=1;" vertex="1" parent="1">
          <mxGeometry x="385" y="5" width="120" height="80" as="geometry" />
        </mxCell>
        <mxCell id="CJoD5Do5vxdJUcqAq3yu-15" value="SOC analyst laptop" style="verticalLabelPosition=bottom;html=1;verticalAlign=top;align=center;strokeColor=none;fillColor=#00BEF2;shape=mxgraph.azure.laptop;pointerEvents=1;" vertex="1" parent="1">
          <mxGeometry x="40" y="36.3" width="50" height="30" as="geometry" />
        </mxCell>
        <mxCell id="CJoD5Do5vxdJUcqAq3yu-31" style="edgeStyle=orthogonalEdgeStyle;rounded=0;orthogonalLoop=1;jettySize=auto;html=1;entryX=0.875;entryY=0.5;entryDx=0;entryDy=0;entryPerimeter=0;" edge="1" parent="1" source="CJoD5Do5vxdJUcqAq3yu-16" target="CJoD5Do5vxdJUcqAq3yu-14">
          <mxGeometry relative="1" as="geometry" />
        </mxCell>
        <mxCell id="CJoD5Do5vxdJUcqAq3yu-16" value="Attacker laptop with Kali Linux" style="image;points=[];aspect=fixed;html=1;align=center;shadow=0;dashed=0;image=img/lib/allied_telesis/computer_and_terminals/Laptop.svg;" vertex="1" parent="1">
          <mxGeometry x="836" y="23.700000000000003" width="42" height="42.599999999999994" as="geometry" />
        </mxCell>
        <mxCell id="CJoD5Do5vxdJUcqAq3yu-17" value="" style="ellipse;shape=cloud;whiteSpace=wrap;html=1;" vertex="1" parent="1">
          <mxGeometry x="416" y="120" width="56" height="40" as="geometry" />
        </mxCell>
        <mxCell id="CJoD5Do5vxdJUcqAq3yu-18" value="osTicketing Server" style="image;aspect=fixed;perimeter=ellipsePerimeter;html=1;align=center;shadow=0;dashed=0;spacingTop=3;image=img/lib/active_directory/generic_server.svg;labelBorderColor=none;" vertex="1" parent="1">
          <mxGeometry x="640" y="180" width="28.000000000000004" height="50" as="geometry" />
        </mxCell>
        <mxCell id="CJoD5Do5vxdJUcqAq3yu-24" value="Forward logs via Agent" style="rounded=0;orthogonalLoop=1;jettySize=auto;html=1;dashed=1;labelBorderColor=none;" edge="1" parent="1" source="CJoD5Do5vxdJUcqAq3yu-9" target="CJoD5Do5vxdJUcqAq3yu-8">
          <mxGeometry relative="1" as="geometry">
            <mxPoint x="316" y="357" as="sourcePoint" />
            <mxPoint x="192" y="250" as="targetPoint" />
          </mxGeometry>
        </mxCell>
        <mxCell id="CJoD5Do5vxdJUcqAq3yu-28" value="" style="ellipse;shape=cloud;whiteSpace=wrap;html=1;" vertex="1" parent="1">
          <mxGeometry x="140" y="160" width="56" height="50" as="geometry" />
        </mxCell>
        <mxCell id="CJoD5Do5vxdJUcqAq3yu-30" value="Connect to Elastic/Kibana via WEB GUI" style="edgeStyle=orthogonalEdgeStyle;rounded=0;orthogonalLoop=1;jettySize=auto;html=1;entryX=0.16;entryY=0.55;entryDx=0;entryDy=0;entryPerimeter=0;" edge="1" parent="1" source="CJoD5Do5vxdJUcqAq3yu-15" target="CJoD5Do5vxdJUcqAq3yu-14">
          <mxGeometry relative="1" as="geometry">
            <mxPoint x="380" y="51" as="targetPoint" />
          </mxGeometry>
        </mxCell>
        <mxCell id="CJoD5Do5vxdJUcqAq3yu-33" value="Private Network : 172.31.0.0/24&lt;br&gt;IP Range : 172.31.0.1-254&lt;br&gt;Subnet Mask : 255.255.255.0" style="rounded=0;whiteSpace=wrap;html=1;" vertex="1" parent="1">
          <mxGeometry x="170" y="210" width="180" height="60" as="geometry" />
        </mxCell>
      </root>
    </mxGraphModel>
  </diagram>
</mxfile>
